PathFileType	4	(X/Y/Z)	markers_0_video_left_upright_43fa9c767a284c608474a81e5a60fe99.trc
DataRate	CameraRate	NumFrames	NumMarkers	Units	OrigDataRate	OrigDataStartFrame	OrigNumFrames
12.500000	12.500000	7	42	mm	12.500000	754	3015
Frame#	Time	Nose			LEye			REye			LEar			REar			LShoulder			RShoulder			LElbow			RElbow			LHip			RHip			LKnee			RKnee			LAnkle			RAnkle			LBigToe			LSmallToe			LHeel			RBigToe			RSmallToe			RHeel			RIndex			RPinky			RWrist			LIndex			LPinky			LWrist			LOlecranon			ROlecranon			LCubitalFossa			RCubitalFossa			LAcromion			RAcromion			Neck			PelvisCenter			Thorax			c_spine0			c_spine1			c_spine2			c_spine3			c_neck			c_head
		X1	Y1	Z1	X2	Y2	Z2	X3	Y3	Z3	X4	Y4	Z4	X5	Y5	Z5	X6	Y6	Z6	X7	Y7	Z7	X8	Y8	Z8	X9	Y9	Z9	X10	Y10	Z10	X11	Y11	Z11	X12	Y12	Z12	X13	Y13	Z13	X14	Y14	Z14	X15	Y15	Z15	X16	Y16	Z16	X17	Y17	Z17	X18	Y18	Z18	X19	Y19	Z19	X20	Y20	Z20	X21	Y21	Z21	X22	Y22	Z22	X23	Y23	Z23	X24	Y24	Z24	X25	Y25	Z25	X26	Y26	Z26	X27	Y27	Z27	X28	Y28	Z28	X29	Y29	Z29	X30	Y30	Z30	X31	Y31	Z31	X32	Y32	Z32	X33	Y33	Z33	X34	Y34	Z34	X35	Y35	Z35	X36	Y36	Z36	X37	Y37	Z37	X38	Y38	Z38	X39	Y39	Z39	X40	Y40	Z40	X41	Y41	Z41	X42	Y42	Z42

754	60.240000	3001.032192	622.457095	-2483.188111	2951.709201	682.380130	-2471.727523	2966.671429	645.349009	-2549.502316	2986.134469	827.075518	-2461.708530	3025.009279	737.143013	-2651.390231	3164.722612	966.881467	-2309.058986	3291.466989	830.547021	-2771.113305	3448.581134	972.597654	-2070.040507	3631.930973	772.778830	-2896.528097	3848.291126	899.812342	-2347.951491	3845.179680	834.161633	-2572.887656	3762.644920	432.721258	-2110.139167	3755.895840	315.676339	-2503.555364	4255.557635	409.451063	-2215.057326	4255.312329	267.126151	-2484.224809	4198.817821	177.508894	-2130.011196	4253.109737	248.865745	-2072.008076	4330.395350	426.030409	-2234.794410	4168.394993	40.437389	-2413.698366	4211.442760	56.937975	-2509.623269	4333.741090	277.282458	-2494.427651	3573.170212	290.963866	-2706.439789	3655.771183	326.860853	-2740.690645	3600.644129	455.480038	-2802.540448	3575.082219	479.967857	-1972.593414	3637.399079	547.618729	-1942.208655	3533.355385	666.953206	-1968.392588	3481.281495	995.777711	-2045.341176	3671.509326	774.700273	-2914.319859	3431.259167	930.393221	-2090.351166	3599.321532	751.252846	-2868.479949	3120.573081	929.736115	-2321.537270	3238.619165	804.211189	-2766.675826	3178.199964	846.818255	-2537.145542	3846.735403	866.986988	-2460.419573	3179.596123	866.973652	-2544.106548	3839.946318	934.446533	-2479.931432	3701.300589	984.208736	-2497.547786	3556.210881	1019.618706	-2514.833773	3318.163353	958.935493	-2538.767083	3209.811830	872.215984	-2537.591084	3083.364370	770.625152	-2535.808917
755	60.320000	2859.064452	597.035063	-2377.928072	2818.066899	661.360289	-2367.694323	2822.051775	617.346182	-2442.069528	2867.105113	801.813993	-2373.097703	2879.281097	693.461680	-2556.428623	3055.341966	920.598252	-2255.817767	3135.649559	783.596187	-2702.634581	3358.597409	939.057518	-2040.538750	3457.567081	724.271459	-2869.441062	3726.258915	875.111056	-2343.733487	3712.617020	809.411034	-2566.784421	3631.253491	413.115754	-2089.568232	3614.808551	286.413440	-2500.549402	4125.164365	388.354066	-2216.491398	4124.006925	273.033490	-2491.258861	4073.043798	158.737412	-2123.796937	4129.435082	231.463438	-2070.226899	4199.206816	404.215632	-2239.662014	4045.809749	48.453280	-2411.085965	4086.893256	62.919868	-2507.865763	4202.039895	286.277984	-2503.064037	3378.278574	257.793942	-2648.475943	3464.787882	280.944244	-2695.340564	3412.855545	411.614273	-2762.664187	3439.129630	431.101703	-1966.166621	3514.759784	489.330248	-1938.037894	3422.607504	622.448785	-1951.527148	3392.976048	958.772030	-2019.178497	3493.231347	722.949241	-2890.395453	3337.625243	897.552728	-2058.813187	3427.806841	704.866009	-2838.299082	3010.094910	883.143570	-2258.476495	3083.613152	753.559411	-2695.291598	3046.984466	799.606920	-2467.416479	3719.437968	842.261045	-2455.258954	3046.854031	818.351491	-2476.884046	3710.101022	909.622971	-2474.604117	3568.833915	953.590141	-2482.963424	3421.323005	980.867248	-2488.274711	3185.003165	911.007103	-2487.716349	3079.052402	822.797629	-2473.350675	2950.780609	730.035067	-2449.613891
756	60.400000	2829.001141	681.127871	-2292.885526	2789.615936	749.644776	-2282.655159	2784.972666	699.928185	-2356.194235	2843.428819	886.709033	-2303.014389	2834.692772	768.341811	-2478.286413	3061.024947	1002.861599	-2198.799301	3081.393538	832.464848	-2656.720010	3385.298134	1013.729875	-2002.565934	3391.362243	745.228241	-2851.321490	3698.074344	923.905570	-2337.070051	3673.451511	842.922546	-2553.332579	3611.739578	465.812365	-2055.271332	3578.878032	318.940077	-2440.543092	4105.427389	425.756148	-2193.353449	4089.436175	280.036883	-2453.291174	4063.599204	194.492245	-2092.548157	4123.067218	268.450900	-2043.468760	4178.026069	442.060150	-2220.758031	4029.740111	51.916083	-2355.395918	4065.351047	62.636932	-2455.231226	4166.618226	295.035281	-2468.966606	3387.618376	282.820894	-2599.154719	3456.679815	306.851044	-2658.608951	3388.994929	430.156520	-2724.953227	3493.392904	508.924094	-1920.845051	3559.934531	567.111781	-1893.225033	3465.336162	697.448499	-1903.511595	3422.091523	1035.014823	-1983.580556	3426.279711	744.432083	-2878.362421	3363.023830	971.563893	-2018.558949	3366.038593	727.034147	-2814.582180	3012.360715	968.003167	-2197.518493	3030.026717	806.036507	-2641.158853	3018.812776	871.772882	-2411.407919	3685.762928	883.414058	-2445.201315	3021.193716	887.019837	-2419.338673	3678.645299	948.732652	-2468.772205	3540.612395	999.593410	-2475.847509	3395.617232	1035.164284	-2475.764173	3159.104350	975.790809	-2451.459248	3052.663401	893.299579	-2421.364571	2917.260928	807.192701	-2381.537960
757	60.480000	2897.087361	712.534976	-2214.442305	2857.534115	780.796889	-2206.373782	2846.770894	725.202666	-2274.159517	2905.605115	915.952397	-2243.593008	2882.073568	783.223385	-2405.698634	3138.832401	1027.546787	-2162.586767	3108.438411	840.338961	-2610.291566	3478.270908	1032.401771	-1991.413785	3390.692607	758.930677	-2846.808636	3755.506586	932.905409	-2334.088373	3720.549074	845.353097	-2544.090487	3682.554174	482.082855	-2030.342728	3627.795350	318.906215	-2419.043035	4167.473480	429.677065	-2195.872711	4140.449940	288.227819	-2443.604909	4136.702393	199.343384	-2087.476591	4198.668560	275.071355	-2044.392671	4237.763917	445.704865	-2228.938186	4094.565392	59.076471	-2340.129846	4126.506310	69.726519	-2441.207338	4216.609802	305.937199	-2461.493683	3472.910223	314.356065	-2587.739747	3526.833823	339.886217	-2659.601609	3439.524320	454.576502	-2715.689159	3549.522940	523.071395	-1918.963148	3618.972782	576.672388	-1892.173419	3535.030022	713.098302	-1898.615603	3517.118828	1050.962150	-1975.088352	3421.160533	759.683550	-2879.599676	3452.065089	991.469202	-2005.559039	3373.142702	740.894706	-2805.917383	3089.098401	994.768827	-2155.344415	3059.246137	814.147944	-2588.968214	3072.611111	890.254915	-2364.580250	3738.027830	889.129253	-2439.089430	3074.172269	904.458385	-2372.156315	3729.497075	953.742302	-2464.679273	3591.235148	1005.059489	-2467.982807	3446.685489	1042.513205	-2462.544447	3211.073469	988.608628	-2421.139530	3105.777993	909.913664	-2378.868657	2973.110597	831.278673	-2321.715038
758	60.560000	2997.967725	713.992982	-2160.651185	2961.142269	782.873922	-2153.229680	2942.575099	723.325791	-2214.976797	3007.498907	914.698209	-2204.066983	2964.869846	770.846890	-2354.013349	3251.813218	1016.438854	-2150.141700	3168.026140	822.240761	-2583.159820	3597.638077	1005.151670	-1999.434030	3423.349887	756.728211	-2850.961562	3839.802326	918.815967	-2344.334104	3802.178045	815.504043	-2547.904625	3769.839474	497.915668	-2010.891318	3709.429004	303.810908	-2399.063064	4253.318663	430.576368	-2169.377899	4219.851981	279.218375	-2419.443243	4219.504467	207.519408	-2049.788283	4281.252467	285.302807	-2010.345546	4324.239759	443.813053	-2202.639420	4171.500667	59.454136	-2299.336157	4202.894144	62.672267	-2401.153004	4296.370553	294.778318	-2438.512345	3503.533389	293.299210	-2638.589927	3554.669959	324.881840	-2710.217290	3470.227864	446.054905	-2749.501771	3649.362052	496.576882	-1917.137946	3722.469493	551.044317	-1892.672191	3640.482325	689.880846	-1904.784351	3638.028704	1021.861551	-1985.459221	3450.383048	759.455698	-2886.202542	3568.711899	965.691502	-2011.444179	3409.078519	735.921793	-2810.083162	3200.536476	986.686892	-2137.092811	3121.450280	796.248982	-2558.486744	3160.238818	876.226115	-2339.474997	3820.990185	867.160005	-2446.119365	3160.993378	891.467937	-2347.789777	3811.002856	930.007180	-2476.093821	3672.305970	979.498690	-2479.725076	3527.900241	1016.702378	-2471.558594	3294.940751	968.210475	-2412.463593	3191.979021	893.973850	-2358.223983	3065.018243	822.983018	-2283.228002
759	60.640000	3170.521059	769.013511	-2074.725814	3132.768280	839.478145	-2071.295589	3107.255953	772.008939	-2123.246645	3170.150682	963.118637	-2144.044396	3111.643406	802.954676	-2268.025200	3424.127642	1052.604484	-2114.386085	3285.838745	833.855463	-2531.232563	3779.414413	1019.482861	-1994.150978	3526.595099	766.463456	-2809.411191	3982.520246	920.125680	-2340.343918	3934.886062	803.832742	-2536.847181	3926.061876	516.766820	-1987.334536	3844.377319	306.544388	-2347.659596	4397.445376	427.987661	-2144.526766	4345.505619	267.450698	-2387.691622	4366.488351	209.492728	-2013.145192	4430.332101	288.490625	-1978.777469	4467.019073	439.495991	-2179.989424	4298.760144	53.578989	-2256.438870	4326.224549	51.584163	-2359.620360	4421.148809	281.228270	-2410.315304	3688.487611	325.995522	-2610.595583	3724.863556	360.444480	-2682.887698	3623.465719	469.209482	-2713.424118	3834.780968	513.959205	-1900.162773	3903.697319	570.881596	-1885.916899	3820.596378	706.803389	-1898.328812	3822.317293	1035.366918	-1983.907182	3551.142165	771.740642	-2848.174186	3747.650403	981.195942	-2003.318959	3517.821847	746.026441	-2766.661246	3372.592644	1026.836051	-2096.635121	3242.428927	811.123064	-2500.744214	3306.941809	907.194620	-2289.498232	3958.703154	861.979211	-2438.595549	3307.510786	918.979557	-2298.689668	3948.457913	922.857966	-2472.209301	3810.417499	976.549213	-2473.879726	3667.731167	1021.163635	-2461.416887	3437.162443	987.904128	-2381.875917	3336.254575	922.070077	-2313.572655	3219.003484	862.568346	-2217.274991
760	60.720000	3347.311148	857.653064	-1958.509231	3308.794074	928.120528	-1954.895378	3277.238830	855.823525	-1997.182732	3332.021060	1047.284969	-2042.486105	3258.902415	875.213582	-2144.263447	3591.536547	1127.301478	-2052.253716	3404.605323	872.415886	-2434.530053	3957.285003	1106.640113	-1988.402787	3616.439480	819.215944	-2735.000098	4129.384282	967.204952	-2322.377897	4066.229083	838.981086	-2515.470199	4118.573900	580.968807	-1958.396144	4026.342319	338.878652	-2344.736665	4584.703761	482.640446	-2120.023733	4519.923432	299.632648	-2428.612569	4565.519380	264.311629	-1982.378686	4628.990710	345.700559	-1952.460150	4652.524753	494.300932	-2157.870771	4485.942134	77.171796	-2304.544011	4504.528601	80.905289	-2410.089679	4593.205869	315.443894	-2457.097269	3947.475273	506.680813	-2521.585087	3961.524575	534.263405	-2605.899576	3821.790884	589.847265	-2632.273142	4047.190112	610.741566	-1883.422286	4114.000355	672.684658	-1886.669094	4021.451885	801.031610	-1890.462207	4001.390914	1124.318958	-1986.326624	3632.676216	826.533638	-2779.361588	3925.200795	1067.094285	-1990.874783	3620.586424	804.425754	-2688.899153	3543.303953	1105.147422	-2026.287936	3365.845333	852.203760	-2399.140334	3450.697023	972.203938	-2200.767921	4097.806683	903.093019	-2418.924048	3454.574643	978.675591	-2212.714135	4082.426614	962.866957	-2453.542636	3941.710298	1014.591504	-2442.919270	3798.555765	1060.911501	-2419.194692	3572.148557	1041.319362	-2314.469910	3476.852009	982.898507	-2229.713500	3372.231877	940.120378	-2113.931225
